# xmcd
#
# Track frame offsets: 
#        150
#        10893
#        22198
#        33289
#        44824
#        59017
#        74569
#        87305
#        98574
#        107350
#        118275
#        128424
#        143172
#        154669
#        166904
#        179967
#
# Disc length: 2504 seconds
#
# Revision: 0
# Processed by: cddbd v1.5.2PL0 Copyright (c) Steve Scherf et al.
# Submitted via: ExactAudioCopyFreeDBPlugin 1.0
#
DISCID=e209c610
DTITLE=Gadzukes!  - New and Used
DYEAR=2009
DGENRE=
TTITLE0=Hapa Haole Swing
TTITLE1=Tuxedo Junction
TTITLE2=Till There Was You
TTITLE3=September in the Rain
TTITLE4=By the Time I Get to Phoenix
TTITLE5=My Baby Just Cares for Me
TTITLE6=Used to Be
TTITLE7=Roundup Time on the Rio Grande
TTITLE8=Stompin' at the Savoy
TTITLE9=I Don't Know Enough About You
TTITLE10=Lovely Hula Hands
TTITLE11=Head In the Clouds
TTITLE12=Linger in My Arms a Little Longer, Baby
TTITLE13=Sugar Moon
TTITLE14=Along the Navajo Trail
TTITLE15=I'm Pau
EXTD=
EXTT0=
EXTT1=
EXTT2=
EXTT3=
EXTT4=
EXTT5=
EXTT6=
EXTT7=
EXTT8=
EXTT9=
EXTT10=
EXTT11=
EXTT12=
EXTT13=
EXTT14=
EXTT15=
PLAYORDER=
